<svg width="147" height="83" viewBox="0 0 147 83" fill="none" xmlns="http://www.w3.org/2000/svg">
<path d="M141.263 65.4249C141.274 65.9513 141.174 66.474 140.969 66.9591C140.809 67.3151 140.569 67.6295 140.267 67.8782C139.966 68.1269 139.612 68.3034 139.232 68.3939C138.52 68.6072 137.76 68.6048 137.049 68.3869C136.378 68.1903 135.692 68.0476 134.999 67.9599C134.254 67.8771 133.499 67.95 132.784 68.174C132.277 68.3235 131.784 68.4989 131.292 68.68C130.637 68.9359 129.925 69.01 129.23 68.8946C128.713 68.8348 128.226 68.6219 127.831 68.2832C127.436 67.9444 127.151 67.4953 127.013 66.9935C126.834 66.4381 126.799 65.8462 126.911 65.2735C127.024 64.7008 127.28 64.1662 127.657 63.7201C128.041 63.2246 128.49 62.7728 128.912 62.3021C129.103 62.0887 129.297 61.881 129.489 61.6676C129.803 61.2776 130.028 60.8232 130.147 60.3366C130.229 60.0589 130.311 59.7812 130.397 59.505C130.544 59.0135 130.817 58.5689 131.189 58.2151C131.56 57.8613 132.018 57.6105 132.516 57.4876C133.323 57.2418 134.182 57.2223 134.999 57.4311C135.449 57.5266 135.87 57.7287 136.225 58.0203C136.581 58.3119 136.862 58.6847 137.043 59.1072C137.167 59.3631 137.276 59.6303 137.372 59.8958C137.613 60.5674 138.031 61.1613 138.582 61.6144C139.086 62.048 139.601 62.5088 140.081 62.9864C140.62 63.4889 140.998 64.1403 141.165 64.8578C141.206 65.0369 141.227 65.233 141.263 65.4249Z" fill="#A7A0A0"/>
<path d="M133.102 54.7923C133.143 55.4184 132.963 56.039 132.592 56.5453C132.433 56.7622 132.231 56.9437 131.998 57.0781C131.734 57.2275 131.441 57.3171 131.139 57.3408C130.837 57.3645 130.533 57.3216 130.25 57.2151C129.902 57.1026 129.583 56.9136 129.318 56.6619C128.15 55.5055 127.854 54.2213 128.459 52.8168C128.565 52.5969 128.709 52.3975 128.884 52.2275C129.19 51.9402 129.576 51.7537 129.992 51.6934C130.407 51.6331 130.831 51.7019 131.206 51.8904C131.744 52.1352 132.197 52.533 132.51 53.0342C132.863 53.5558 133.068 54.1634 133.102 54.7923Z" fill="#A7A0A0"/>
<path d="M139.004 53.9206C138.981 54.3888 138.865 54.8476 138.662 55.2706C138.46 55.6935 138.176 56.072 137.826 56.3842C137.612 56.5708 137.373 56.7262 137.116 56.8456C136.745 57.0335 136.323 57.0958 135.914 57.0232C135.505 56.9506 135.13 56.747 134.847 56.4431C134.496 56.0584 134.28 55.5694 134.233 55.0506C134.173 54.5562 134.22 54.0547 134.372 53.5802C134.523 53.1057 134.774 52.6692 135.108 52.3002C135.383 51.9805 135.727 51.7276 136.114 51.5609C136.48 51.3859 136.893 51.3303 137.293 51.4022C137.693 51.4741 138.06 51.6698 138.343 51.9616C138.692 52.337 138.911 52.8147 138.967 53.3242C139.006 53.5648 139.002 53.7905 139.004 53.9206Z" fill="#A7A0A0"/>
<path d="M124.252 59.0102C124.222 58.5723 124.304 58.1341 124.491 57.7369C124.974 56.771 126.082 56.426 127.162 56.911C127.808 57.1956 128.342 57.6862 128.68 58.3061C128.909 58.6654 129.058 59.0701 129.116 59.4925C129.175 59.9148 129.141 60.3448 129.017 60.7527C128.957 60.9328 128.874 61.1042 128.77 61.2628C128.531 61.6126 128.183 61.8734 127.78 62.0044C127.377 62.1354 126.942 62.1293 126.543 61.9869C125.987 61.8144 125.491 61.4847 125.117 61.0375C124.612 60.4765 124.307 59.7633 124.252 59.0102Z" fill="#A7A0A0"/>
<path d="M143.14 58.1236C143.145 58.6455 143.032 59.1617 142.808 59.6331C142.584 60.1046 142.256 60.5189 141.848 60.8445C141.514 61.1378 141.107 61.3352 140.669 61.4159C140.376 61.4791 140.072 61.4689 139.784 61.386C139.496 61.3031 139.233 61.1502 139.019 60.941C138.634 60.5736 138.403 60.0736 138.373 59.5424C138.321 59.0155 138.395 58.4839 138.588 57.991C138.781 57.4981 139.088 57.0579 139.484 56.7063C139.935 56.2498 140.546 55.9859 141.187 55.97C141.436 55.9632 141.683 56.009 141.913 56.1044C142.143 56.1999 142.35 56.3428 142.521 56.5239C142.916 56.9633 143.136 57.5325 143.14 58.1236Z" fill="#A7A0A0"/>
<path d="M107.08 38.8533C106.92 39.7575 106.571 40.6177 106.056 41.3774C105.253 42.5794 104.014 43.0771 102.591 43.241C101.299 43.3673 99.9979 43.108 98.8529 42.4958C97.7721 41.9323 96.6489 41.4544 95.4934 41.0665C94.2463 40.6705 92.9305 40.5378 91.6294 40.6771C90.7165 40.7644 89.8046 40.8903 88.901 41.0334C87.6917 41.2489 86.4468 41.1332 85.2979 40.6987C83.4191 39.958 82.3448 38.6498 82.1505 36.688C81.9358 34.5159 82.7183 32.7305 84.3709 31.3046C85.1987 30.5874 86.1225 29.9657 87.0081 29.3164L88.2082 28.4223C88.8825 27.8618 89.4233 27.1582 89.7916 26.3625C90.0272 25.9181 90.2643 25.4694 90.5041 25.0264C91.4095 23.3555 92.8709 22.4804 94.8198 22.2958C96.2849 22.1485 97.7623 22.4081 99.0895 23.0462C99.8253 23.362 100.475 23.8496 100.983 24.4681C101.492 25.0866 101.845 25.818 102.012 26.601C102.124 27.0869 102.226 27.5626 102.303 28.0652C102.488 29.2971 103.002 30.4563 103.791 31.4208C104.522 32.3445 105.237 33.2838 105.902 34.2539C106.656 35.2952 107.082 36.5383 107.124 37.8234C107.13 38.165 107.097 38.5076 107.08 38.8533Z" fill="#ABE9EF"/>
<path d="M96.7484 17.8564C96.6069 18.9451 96.0888 19.95 95.284 20.6967C94.9386 21.0139 94.5305 21.2552 94.0861 21.405C93.5847 21.5735 93.0524 21.6297 92.5268 21.5696C92.0012 21.5095 91.4953 21.3346 91.0449 21.0572C90.4859 20.7486 90.0052 20.3158 89.6399 19.7921C88.033 17.4141 87.9657 15.1137 89.4806 12.9201C89.7414 12.5751 90.0639 12.2816 90.4318 12.0543C91.6409 11.2447 93.2476 11.336 94.5309 12.2623C95.3677 12.8663 96.0088 13.7026 96.3748 14.6676C96.7794 15.6787 96.9083 16.7791 96.7484 17.8564Z" fill="#ABE9EF"/>
<path d="M107.153 18.3997C106.656 20.0328 105.832 21.3231 104.299 22.2188C103.869 22.4655 103.405 22.6494 102.923 22.7649C102.225 22.9603 101.482 22.9234 100.806 22.6595C100.131 22.3957 99.5592 21.9192 99.1782 21.3022C98.7069 20.5245 98.5038 19.6138 98.6 18.7096C98.667 17.8431 98.9192 17.0011 99.3397 16.2405C99.7601 15.4799 100.339 14.8184 101.037 14.3008C101.615 13.8451 102.291 13.5288 103.011 13.3762C103.698 13.2013 104.422 13.2469 105.082 13.5064C105.742 13.7659 106.303 14.2263 106.687 14.8224C107.159 15.5839 107.371 16.4773 107.293 17.3695C107.27 17.768 107.189 18.1586 107.153 18.3997Z" fill="#ABE9EF"/>
<path d="M80.1592 22.0714C80.2533 21.3104 80.544 20.5869 81.0026 19.9724C82.1587 18.4818 84.1693 18.2708 85.8567 19.4665C86.8547 20.1728 87.5949 21.1856 87.9647 22.351C88.4595 23.8335 88.4658 25.2827 87.7042 26.6568C87.5419 26.9443 87.3415 27.2086 87.1085 27.4426C86.0692 28.5002 84.4835 28.6792 83.0481 27.9082C82.1528 27.4232 81.4165 26.6901 80.9277 25.7968C80.2692 24.6731 79.9991 23.3639 80.1592 22.0714Z" fill="#ABE9EF"/>
<path d="M112.796 26.989C112.63 27.885 112.261 28.7311 111.718 29.4627C111.174 30.1944 110.471 30.7922 109.661 31.2106C108.985 31.591 108.219 31.782 107.444 31.7634C106.921 31.7698 106.404 31.6477 105.939 31.408C105.475 31.1683 105.076 30.8181 104.778 30.3883C104.247 29.6261 104.022 28.6915 104.149 27.7709C104.237 26.853 104.541 25.9691 105.036 25.1911C105.531 24.4132 106.203 23.7632 106.997 23.2942C107.922 22.6616 109.058 22.4171 110.161 22.6131C110.592 22.6818 111.004 22.8417 111.368 23.0821C111.733 23.3224 112.042 23.6377 112.275 24.007C112.852 24.9059 112.935 25.8602 112.796 26.989Z" fill="#ABE9EF"/>
<path d="M66.9512 49.2595C67.4034 49.6842 67.7608 50.1995 68.0001 50.7717C68.3779 51.6539 68.2167 52.5523 67.7759 53.4158C67.3708 54.1933 66.7441 54.8332 65.9752 55.2543C65.258 55.6559 64.5741 56.1144 63.9302 56.6253C63.2441 57.1842 62.6829 57.8807 62.2827 58.67C61.993 59.2153 61.7302 59.7794 61.4774 60.3422C61.1529 61.1053 60.6276 61.766 59.9574 62.2542C58.8457 63.0451 57.7123 63.1682 56.5308 62.5548C55.9155 62.2479 55.3884 61.7894 54.9994 61.2225C54.6103 60.6556 54.3721 59.9989 54.3071 59.3144C54.2075 58.5815 54.1954 57.831 54.1474 57.0872C54.1202 56.7453 54.1016 56.3992 54.0856 56.0803C54.015 55.4933 53.8166 54.9288 53.5044 54.4267C53.338 54.1274 53.173 53.8309 53.0124 53.5288C52.7189 53.0001 52.569 52.4037 52.5775 51.7991C52.586 51.1944 52.7526 50.6025 53.0608 50.0822C53.5194 49.2001 54.2112 48.4607 55.061 47.9446C55.5118 47.6437 56.0285 47.4557 56.5673 47.3967C57.1061 47.3377 57.6513 47.4094 58.1565 47.6057C58.4724 47.7225 58.7882 47.8393 59.0909 47.9802C59.8561 48.3304 60.7016 48.4677 61.5384 48.3779C62.3297 48.3033 63.1235 48.2489 63.917 48.2301C64.7841 48.1858 65.6444 48.4037 66.386 48.8552C66.5803 48.9777 66.7614 49.1243 66.9512 49.2595Z" fill="#A7A0A0"/>
<path d="M51.2708 47.356C51.8315 47.8394 52.205 48.5039 52.3266 49.2341C52.3795 49.5468 52.3653 49.8672 52.285 50.174C52.1945 50.5183 52.0298 50.8386 51.8025 51.1125C51.5752 51.3865 51.2907 51.6074 50.9691 51.7598C50.5886 51.9623 50.1667 52.0745 49.7359 52.0875C47.7989 52.1207 46.4742 51.3068 45.7916 49.642C45.6925 49.368 45.6448 49.0782 45.6507 48.787C45.66 48.2909 45.8219 47.8097 46.1142 47.4088C46.4066 47.0079 46.8153 46.7067 47.2849 46.5463C47.9341 46.2964 48.6422 46.2421 49.322 46.39C50.0459 46.5332 50.7185 46.8666 51.2708 47.356Z" fill="#A7A0A0"/>
<path d="M55.4173 41.6749C55.7913 42.0797 56.0816 42.5545 56.2714 43.0719C56.4612 43.5894 56.5469 44.1392 56.5233 44.6899C56.5038 45.0246 56.4366 45.3549 56.3239 45.6707C56.1763 46.1372 55.881 46.5431 55.4826 46.8272C55.0841 47.1112 54.6041 47.258 54.1149 47.2454C53.5026 47.2257 52.9135 47.0061 52.4377 46.6201C51.9728 46.262 51.59 45.8085 51.3149 45.2901C51.0398 44.7718 50.8788 44.2005 50.8428 43.6148C50.7985 43.1198 50.8692 42.6213 51.0495 42.1582C51.2032 41.7048 51.4959 41.3113 51.886 41.0337C52.276 40.7561 52.7436 40.6084 53.2224 40.6116C53.8307 40.6284 54.417 40.8429 54.8927 41.2225C55.1023 41.3766 55.2956 41.5776 55.4173 41.6749Z" fill="#A7A0A0"/>
<path d="M47.5283 58.2887C47.1336 57.9537 46.8327 57.522 46.6548 57.0359C46.2326 55.8202 46.8606 54.6174 48.1603 54.1047C48.9325 53.8003 49.7826 53.7547 50.583 53.9747C51.0745 54.0788 51.5378 54.288 51.9411 54.5877C52.3444 54.8875 52.6781 55.2708 52.9196 55.7115C53.021 55.9097 53.0966 56.12 53.1448 56.3374C53.2414 56.8275 53.1723 57.3359 52.9484 57.7825C52.7246 58.2291 52.3586 58.5887 51.908 58.8045C51.3044 59.1326 50.6182 59.2775 49.9335 59.2217C49.0505 59.1855 48.2046 58.8574 47.5283 58.2887Z" fill="#A7A0A0"/>
<path d="M62.3534 41.6551C62.7945 42.0792 63.1335 42.5979 63.3447 43.1722C63.556 43.7465 63.634 44.3613 63.5729 44.9701C63.5372 45.4933 63.3622 45.9974 63.066 46.4302C62.8775 46.7287 62.6182 46.9761 62.3111 47.1503C62.004 47.3245 61.6587 47.4202 61.3057 47.4288C60.6821 47.4541 60.0719 47.2423 59.5981 46.836C59.113 46.4474 58.7265 45.9497 58.4701 45.3836C58.2136 44.8174 58.0944 44.1987 58.1221 43.5778C58.1045 42.82 58.3869 42.0859 58.9077 41.5352C59.1038 41.3172 59.3439 41.1433 59.6122 41.0249C59.8804 40.9066 60.1708 40.8464 60.464 40.8485C61.1723 40.8725 61.8461 41.1602 62.3534 41.6551Z" fill="#A7A0A0"/>
<path d="M34.4402 74.4107C34.5976 75.206 34.5846 76.0256 34.4019 76.8155C34.1235 78.0583 33.2674 78.8709 32.1297 79.4542C31.1086 79.9695 29.9577 80.1701 28.8225 80.0307C27.7541 79.9112 26.6779 79.8759 25.6039 79.9251C24.4495 79.9897 23.3212 80.2946 22.2914 80.8202C21.5639 81.1727 20.8614 81.5771 20.1618 81.98C19.2364 82.5425 18.1756 82.843 17.0926 82.8495C15.312 82.8389 14.0148 82.104 13.2322 80.5551C12.3673 78.8436 12.4402 77.1181 13.343 75.42C13.7995 74.5667 14.3582 73.7632 14.8744 72.9378C15.1062 72.5663 15.3452 72.1948 15.5757 71.8203C15.9501 71.1458 16.1716 70.3971 16.2245 69.6274C16.2757 69.1836 16.327 68.7397 16.3839 68.3003C16.5974 66.6379 17.5224 65.4546 19.0669 64.6848C20.2225 64.0949 21.5185 63.8354 22.8121 63.9351C23.5198 63.9602 24.2112 64.155 24.828 64.5032C25.4447 64.8513 25.9688 65.3426 26.356 65.9356C26.6001 66.3002 26.8457 66.6676 27.0582 67.0476C27.6033 68.0016 28.3946 68.7918 29.3494 69.3355C30.2462 69.8597 31.1327 70.4066 31.9872 70.9903C32.9385 71.608 33.683 72.4962 34.1251 73.5407C34.2616 73.8297 34.3351 74.1278 34.4402 74.4107Z" fill="#ABE9EF"/>
<path d="M19.2682 60.4326C19.493 61.3723 19.3832 62.361 18.9577 63.2285C18.7734 63.5989 18.5138 63.9267 18.1955 64.1909C17.8371 64.4884 17.4177 64.7034 16.967 64.8205C16.5162 64.9377 16.0452 64.9542 15.5874 64.8689C15.0299 64.7932 14.4971 64.5911 14.0298 64.278C11.9525 62.8345 11.1667 60.964 11.7124 58.6755C11.8174 58.3094 11.9893 57.9661 12.2194 57.6627C12.6057 57.1426 13.1431 56.7543 13.7582 56.5509C14.3733 56.3475 15.0362 56.3389 15.6564 56.5262C16.5326 56.7576 17.3229 57.238 17.9317 57.9093C18.5942 58.6161 19.0557 59.4874 19.2682 60.4326Z" fill="#ABE9EF"/>
<path d="M27.9945 57.5708C28.1074 59.0714 27.8395 60.3944 26.8625 61.6171C26.5875 61.9578 26.2652 62.2575 25.9053 62.507C25.3925 62.8929 24.7677 63.1008 24.1259 63.099C23.4841 63.0973 22.8604 62.886 22.3497 62.4973C21.7148 62.0092 21.2586 61.3254 21.0518 60.5518C20.8319 59.8176 20.7718 59.0447 20.8753 58.2853C20.9789 57.5259 21.2438 56.7974 21.6522 56.1488C21.9835 55.5856 22.4404 55.1065 22.9873 54.749C23.4963 54.386 24.1067 54.1926 24.7319 54.1963C25.3571 54.1999 25.9652 54.4004 26.4699 54.7693C27.1053 55.2476 27.5671 55.9202 27.7854 56.685C27.8913 57.0136 27.9456 57.3601 27.9945 57.5708Z" fill="#ABE9EF"/>
<path d="M6.96194 69.1696C6.79796 68.5136 6.80746 67.8261 6.9895 67.1748C7.46372 65.5815 9.04602 64.7578 10.8197 65.2157C11.8698 65.4787 12.805 66.078 13.4825 66.9222C14.354 67.9878 14.8281 69.1713 14.6382 70.5452C14.5945 70.8305 14.5132 71.1087 14.3964 71.3726C13.8742 72.5738 12.6299 73.223 11.2029 73.0481C10.3167 72.9324 9.48213 72.5655 8.7978 71.9907C7.89159 71.2784 7.24617 70.2867 6.96194 69.1696Z" fill="#ABE9EF"/>
<path d="M35.3667 62.84C35.5132 63.6293 35.4773 64.4417 35.2619 65.215C35.0465 65.9884 34.6572 66.7023 34.1238 67.3023C33.6861 67.828 33.1156 68.227 32.4717 68.458C32.0443 68.6295 31.5812 68.6931 31.1234 68.643C30.6656 68.593 30.2272 68.4309 29.847 68.1711C29.1667 67.7141 28.6843 67.0169 28.4963 66.2193C28.2787 65.437 28.2488 64.6145 28.4092 63.8185C28.5695 63.0225 28.9156 62.2757 29.4191 61.6387C29.9802 60.8254 30.837 60.2636 31.8066 60.0733C32.1827 59.9936 32.5715 59.9947 32.9472 60.0765C33.3229 60.1583 33.677 60.3188 33.986 60.5477C34.7535 61.1203 35.1359 61.8582 35.3667 62.84Z" fill="#ABE9EF"/>
</svg>
